# xmcd
#
# Track frame offsets: 
#        150
#        3652
#        40033
#        65764
#        87532
#        117095
#        134798
#        158994
#        180149
#        191512
#
# Disc length: 2825 seconds
#
# Revision: 0
# Processed by: cddbd v1.5.2PL0 Copyright (c) Steve Scherf et al.
# Submitted via: ExactAudioCopyFreeDBPlugin 1.0
#
DISCID=850b070a
DTITLE=Jane Weaver - The Silver Globe
DYEAR=1900
DGENRE=
TTITLE0=The Silver Globe
TTITLE1=Argent
TTITLE2=The Electric Mountain
TTITLE3=Arrows
TTITLE4=Don't Take My Soul
TTITLE5=Cells
TTITLE6=Mission Desire
TTITLE7=Stealing Gold
TTITLE8=If Only We Could Be In Love
TTITLE9=Your Time In This Life Is Just Temporary
EXTD=
EXTT0=
EXTT1=
EXTT2=
EXTT3=
EXTT4=
EXTT5=
EXTT6=
EXTT7=
EXTT8=
EXTT9=
PLAYORDER=
